# xmcd
#
# Track frame offsets:
#	182
#	18655
#	36897
#	56110
#	73655
#	93492
#	114292
#	134912
#	152495
#	171892
#
# Disc length: 2634 seconds
#
# Revision: 2
# Processed by: cddbd v1.4PL0 Copyright (c) Steve Scherf et al.
# Submitted via: CDmax 1.8
#
DISCID=8b0a480a
DTITLE=Billy and Sarah Gaines - Come on Back
DYEAR=1996
DGENRE=Blues
TTITLE0=All Comes Down
TTITLE1=Freedom
TTITLE2=Come on Back
TTITLE3=A Promise that I Will Keep
TTITLE4=So Good
TTITLE5=Just Like Me
TTITLE6=Other Side of This Trial
TTITLE7=Gotta Love Somebody
TTITLE8=Forever
TTITLE9=You Will Always be There
EXTD=
EXTT0=
EXTT1=
EXTT2=
EXTT3=
EXTT4=
EXTT5=
EXTT6=
EXTT7=
EXTT8=
EXTT9=
PLAYORDER=
